<?xml version="1.0" standalone="no"?>
<!DOCTYPE svg PUBLIC "-//W3C//DTD SVG 20010904//EN"
 "http://www.w3.org/TR/2001/REC-SVG-20010904/DTD/svg10.dtd">
<svg version="1.0" xmlns="http://www.w3.org/2000/svg"
 width="260.000000pt" height="260.000000pt" viewBox="0 0 260.000000 260.000000"
 preserveAspectRatio="xMidYMid meet">
<metadata>
Created by potrace 1.11, written by Peter Selinger 2001-2013
</metadata>
<g transform="translate(0.000000,260.000000) scale(0.100000,-0.100000)"
fill="#000000" stroke="none">
<path d="M0 1300 l0 -1300 590 0 590 0 -2 511 -3 511 -52 18 c-161 56 -278
159 -348 305 -87 181 -87 339 0 520 60 125 145 210 270 270 49 24 117 49 149
54 134 24 242 8 371 -54 125 -60 210 -145 270 -270 87 -181 87 -339 0 -520
-60 -125 -145 -210 -270 -270 -49 -24 -107 -47 -127 -51 l-38 -6 0 -509 0
-509 600 0 600 0 0 1300 0 1300 -1300 0 -1300 0 0 -1300z"/>
</g>
</svg>
